<?xml version="1.0" standalone="no"?>
<!DOCTYPE svg PUBLIC "-//W3C//DTD SVG 20010904//EN"
 "http://www.w3.org/TR/2001/REC-SVG-20010904/DTD/svg10.dtd">
<svg version="1.0" xmlns="http://www.w3.org/2000/svg"
 width="820.000000pt" height="768.000000pt" viewBox="0 0 820.000000 768.000000"
 preserveAspectRatio="xMidYMid meet">

<g transform="translate(0.000000,768.000000) scale(0.100000,-0.100000)"
fill="#000000" stroke="none">
<path d="M4560 7673 c-672 -50 -1311 -270 -1862 -639 -847 -569 -1432 -1440
-1633 -2432 -95 -469 -100 -968 -14 -1442 129 -716 480 -1411 978 -1935 570
-601 1259 -984 2061 -1145 433 -87 948 -92 1392 -14 587 103 1162 350 1624
698 92 70 99 79 32 45 -69 -35 -312 -127 -433 -164 -323 -98 -609 -139 -960
-139 -228 0 -356 10 -560 45 -1071 181 -1989 875 -2459 1860 -162 339 -259
676 -308 1069 -17 140 -17 591 1 735 123 1006 654 1867 1493 2423 436 289 915
463 1458 528 175 21 543 24 705 6 375 -43 722 -136 1029 -276 43 -20 81 -36
84 -36 12 0 -119 96 -238 175 -545 361 -1129 569 -1774 630 -142 13 -485 18
-616 8z"/>
</g>
</svg>
